solid OpenSCAD_Model
  facet normal -1 -0 -0
    outer loop
      vertex 0 0 0
      vertex 0 0 15.6
      vertex 0 6.9 0
    endloop
  endfacet
  facet normal -1 0 0
    outer loop
      vertex 0 6.9 0
      vertex 0 0 15.6
      vertex 0 6.9 15.6
    endloop
  endfacet
  facet normal 0 -1 0
    outer loop
      vertex 2.5 0 4.90192
      vertex 0 0 0
      vertex 28 0 0
    endloop
  endfacet
  facet normal -0 -1 0
    outer loop
      vertex 19.6094 0 11.7798
      vertex 22.3906 0 11.7798
      vertex 28 0 15.6
    endloop
  endfacet
  facet normal 0 -1 0
    outer loop
      vertex 5.5 0 4.90192
      vertex 2.5 0 4.90192
      vertex 28 0 0
    endloop
  endfacet
  facet normal 0 -1 0
    outer loop
      vertex 1 0 7.5
      vertex 0 0 0
      vertex 2.5 0 4.90192
    endloop
  endfacet
  facet normal 0 -1 0
    outer loop
      vertex 0 0 15.6
      vertex 0 0 0
      vertex 1 0 7.5
    endloop
  endfacet
  facet normal 0 -1 0
    outer loop
      vertex 17.3594 0 4.85497
      vertex 16.5 0 7.5
      vertex 0 0 15.6
    endloop
  endfacet
  facet normal 0 -1 0
    outer loop
      vertex 0 0 15.6
      vertex 2.5 0 10.0981
      vertex 5.5 0 10.0981
    endloop
  endfacet
  facet normal 0 -1 0
    outer loop
      vertex 19.6094 0 3.22025
      vertex 7 0 7.5
      vertex 28 0 0
    endloop
  endfacet
  facet normal 0 -1 0
    outer loop
      vertex 7 0 7.5
      vertex 5.5 0 4.90192
      vertex 28 0 0
    endloop
  endfacet
  facet normal 0 -1 0
    outer loop
      vertex 0 0 15.6
      vertex 5.5 0 10.0981
      vertex 17.3594 0 4.85497
    endloop
  endfacet
  facet normal 0 -1 0
    outer loop
      vertex 22.3906 0 3.22025
      vertex 19.6094 0 3.22025
      vertex 28 0 0
    endloop
  endfacet
  facet normal 0 -1 0
    outer loop
      vertex 17.3594 0 10.145
      vertex 0 0 15.6
      vertex 16.5 0 7.5
    endloop
  endfacet
  facet normal 0 -1 0
    outer loop
      vertex 19.6094 0 11.7798
      vertex 0 0 15.6
      vertex 17.3594 0 10.145
    endloop
  endfacet
  facet normal -0 -1 0
    outer loop
      vertex 22.3906 0 11.7798
      vertex 24.6406 0 10.145
      vertex 28 0 15.6
    endloop
  endfacet
  facet normal 0 -1 0
    outer loop
      vertex 28 0 15.6
      vertex 0 0 15.6
      vertex 19.6094 0 11.7798
    endloop
  endfacet
  facet normal 0 -1 0
    outer loop
      vertex 24.6406 0 4.85497
      vertex 22.3906 0 3.22025
      vertex 28 0 0
    endloop
  endfacet
  facet normal 0 -1 0
    outer loop
      vertex 28 0 15.6
      vertex 24.6406 0 10.145
      vertex 28 0 0
    endloop
  endfacet
  facet normal 0 -1 0
    outer loop
      vertex 24.6406 0 10.145
      vertex 25.5 0 7.5
      vertex 28 0 0
    endloop
  endfacet
  facet normal 0 -1 0
    outer loop
      vertex 25.5 0 7.5
      vertex 24.6406 0 4.85497
      vertex 28 0 0
    endloop
  endfacet
  facet normal 0 -1 0
    outer loop
      vertex 19.6094 0 3.22025
      vertex 17.3594 0 4.85497
      vertex 5.5 0 10.0981
    endloop
  endfacet
  facet normal 0 -1 -0
    outer loop
      vertex 1 0 7.5
      vertex 2.5 0 10.0981
      vertex 0 0 15.6
    endloop
  endfacet
  facet normal 0 -1 0
    outer loop
      vertex 5.5 0 10.0981
      vertex 7 0 7.5
      vertex 19.6094 0 3.22025
    endloop
  endfacet
  facet normal 0 0 -1
    outer loop
      vertex 7.57138 6.26091 0
      vertex 0 6.9 0
      vertex 7.45869 6.9 0
    endloop
  endfacet
  facet normal 0 0 -1
    outer loop
      vertex 8.3528 4.90746 0
      vertex 0 6.9 0
      vertex 7.57138 6.26091 0
    endloop
  endfacet
  facet normal 0 -0 -1
    outer loop
      vertex 0 0 0
      vertex 0 6.9 0
      vertex 9.55 3.90289 0
    endloop
  endfacet
  facet normal 0 0 -1
    outer loop
      vertex 0 0 0
      vertex 9.55 3.90289 0
      vertex 11.0186 3.36836 0
    endloop
  endfacet
  facet normal -0 0 -1
    outer loop
      vertex 0 0 0
      vertex 11.0186 3.36836 0
      vertex 28 0 0
    endloop
  endfacet
  facet normal 0 0 -1
    outer loop
      vertex 12.5814 3.36836 0
      vertex 28 0 0
      vertex 11.0186 3.36836 0
    endloop
  endfacet
  facet normal 0 0 -1
    outer loop
      vertex 14.05 3.90289 0
      vertex 28 0 0
      vertex 12.5814 3.36836 0
    endloop
  endfacet
  facet normal 0 0 -1
    outer loop
      vertex 15.2472 4.90746 0
      vertex 28 0 0
      vertex 14.05 3.90289 0
    endloop
  endfacet
  facet normal 0 0 -1
    outer loop
      vertex 28 0 0
      vertex 15.2472 4.90746 0
      vertex 16.0286 6.26091 0
    endloop
  endfacet
  facet normal -0 0 -1
    outer loop
      vertex 16.0286 6.26091 0
      vertex 16.3 7.8 0
      vertex 28 0 0
    endloop
  endfacet
  facet normal -0 -0 -1
    outer loop
      vertex 16.3 7.8 0
      vertex 16.0286 9.33909 0
      vertex 28 0 0
    endloop
  endfacet
  facet normal -0 -0 -1
    outer loop
      vertex 16.0286 9.33909 0
      vertex 15.2472 10.6925 0
      vertex 28 0 0
    endloop
  endfacet
  facet normal 0 0 -1
    outer loop
      vertex 0 8.9 0
      vertex 9.55 11.6971 0
      vertex 8.3528 10.6925 0
    endloop
  endfacet
  facet normal -0 -0 -1
    outer loop
      vertex 15.2472 10.6925 0
      vertex 14.05 11.6971 0
      vertex 28 0 0
    endloop
  endfacet
  facet normal 0 0 -1
    outer loop
      vertex 0 8.9 0
      vertex 8.3528 10.6925 0
      vertex 7.57138 9.33909 0
    endloop
  endfacet
  facet normal -0 0 -1
    outer loop
      vertex 14.05 11.6971 0
      vertex 28 15.6 0
      vertex 28 0 0
    endloop
  endfacet
  facet normal -0 0 -1
    outer loop
      vertex 0 8.9 0
      vertex 7.57138 9.33909 0
      vertex 7.49396 8.9 0
    endloop
  endfacet
  facet normal 0 0 -1
    outer loop
      vertex 11.0186 12.2316 0
      vertex 9.55 11.6971 0
      vertex 0 8.9 0
    endloop
  endfacet
  facet normal 0 0 -1
    outer loop
      vertex 11.0186 12.2316 0
      vertex 0 8.9 0
      vertex 0 15.6 0
    endloop
  endfacet
  facet normal -0 -0 -1
    outer loop
      vertex 11.0186 12.2316 0
      vertex 0 15.6 0
      vertex 12.5814 12.2316 0
    endloop
  endfacet
  facet normal 0 -0 -1
    outer loop
      vertex 12.5814 12.2316 0
      vertex 0 15.6 0
      vertex 28 15.6 0
    endloop
  endfacet
  facet normal -0 0 -1
    outer loop
      vertex 12.5814 12.2316 0
      vertex 28 15.6 0
      vertex 14.05 11.6971 0
    endloop
  endfacet
  facet normal 0 0 -1
    outer loop
      vertex 9.55 3.90289 0
      vertex 0 6.9 0
      vertex 8.3528 4.90746 0
    endloop
  endfacet
  facet normal 0 1 -0
    outer loop
      vertex 2.54377 6.9 6.44199
      vertex 7.45869 6.9 0
      vertex 0 6.9 0
    endloop
  endfacet
  facet normal -0 1 -0
    outer loop
      vertex 3.44377 6.9 5.7881
      vertex 7.45869 6.9 0
      vertex 2.54377 6.9 6.44199
    endloop
  endfacet
  facet normal 0 1 -0
    outer loop
      vertex 2.2 6.9 7.5
      vertex 2.54377 6.9 6.44199
      vertex 0 6.9 0
    endloop
  endfacet
  facet normal 0 1 -0
    outer loop
      vertex 4.55623 6.9 5.7881
      vertex 7.45869 6.9 0
      vertex 3.44377 6.9 5.7881
    endloop
  endfacet
  facet normal 0 1 -0
    outer loop
      vertex 5.8 6.9 7.5
      vertex 7.45869 6.9 0
      vertex 5.45623 6.9 6.44199
    endloop
  endfacet
  facet normal 0 1 0
    outer loop
      vertex 7.45869 6.9 15.6
      vertex 7.45869 6.9 0
      vertex 5.8 6.9 7.5
    endloop
  endfacet
  facet normal 0 1 0
    outer loop
      vertex 3.44377 6.9 9.2119
      vertex 0 6.9 15.6
      vertex 4.55623 6.9 9.2119
    endloop
  endfacet
  facet normal 0 1 0
    outer loop
      vertex 7.45869 6.9 15.6
      vertex 5.45623 6.9 8.55801
      vertex 0 6.9 15.6
    endloop
  endfacet
  facet normal 0 1 0
    outer loop
      vertex 5.45623 6.9 8.55801
      vertex 4.55623 6.9 9.2119
      vertex 0 6.9 15.6
    endloop
  endfacet
  facet normal 0 1 0
    outer loop
      vertex 5.45623 6.9 8.55801
      vertex 7.45869 6.9 15.6
      vertex 5.8 6.9 7.5
    endloop
  endfacet
  facet normal 0 1 0
    outer loop
      vertex 2.54377 6.9 8.55801
      vertex 0 6.9 15.6
      vertex 3.44377 6.9 9.2119
    endloop
  endfacet
  facet normal 0 1 0
    outer loop
      vertex 2.2 6.9 7.5
      vertex 0 6.9 15.6
      vertex 2.54377 6.9 8.55801
    endloop
  endfacet
  facet normal 0 1 -0
    outer loop
      vertex 0 6.9 15.6
      vertex 2.2 6.9 7.5
      vertex 0 6.9 0
    endloop
  endfacet
  facet normal 0 1 -0
    outer loop
      vertex 5.45623 6.9 6.44199
      vertex 7.45869 6.9 0
      vertex 4.55623 6.9 5.7881
    endloop
  endfacet
  facet normal 0 -0 1
    outer loop
      vertex 12.5814 3.36836 15.6
      vertex 0 0 15.6
      vertex 28 0 15.6
    endloop
  endfacet
  facet normal 0 0 1
    outer loop
      vertex 9.55 3.90289 15.6
      vertex 8.3528 4.90746 15.6
      vertex 0 6.9 15.6
    endloop
  endfacet
  facet normal 0 0 1
    outer loop
      vertex 11.0186 12.2316 15.6
      vertex 12.5814 12.2316 15.6
      vertex 28 15.6 15.6
    endloop
  endfacet
  facet normal 0 -0 1
    outer loop
      vertex 14.05 3.90289 15.6
      vertex 12.5814 3.36836 15.6
      vertex 28 0 15.6
    endloop
  endfacet
  facet normal -0 0 1
    outer loop
      vertex 8.3528 10.6925 15.6
      vertex 9.55 11.6971 15.6
      vertex 0 8.9 15.6
    endloop
  endfacet
  facet normal 0 0 1
    outer loop
      vertex 14.05 11.6971 15.6
      vertex 15.2472 10.6925 15.6
      vertex 28 15.6 15.6
    endloop
  endfacet
  facet normal 0 0 1
    outer loop
      vertex 0 8.9 15.6
      vertex 7.57138 9.33909 15.6
      vertex 8.3528 10.6925 15.6
    endloop
  endfacet
  facet normal 0 0 1
    outer loop
      vertex 12.5814 12.2316 15.6
      vertex 14.05 11.6971 15.6
      vertex 28 15.6 15.6
    endloop
  endfacet
  facet normal 0 -0 1
    outer loop
      vertex 0 15.6 15.6
      vertex 0 8.9 15.6
      vertex 9.55 11.6971 15.6
    endloop
  endfacet
  facet normal 0 0 1
    outer loop
      vertex 0 15.6 15.6
      vertex 11.0186 12.2316 15.6
      vertex 28 15.6 15.6
    endloop
  endfacet
  facet normal 0 0 1
    outer loop
      vertex 0 15.6 15.6
      vertex 9.55 11.6971 15.6
      vertex 11.0186 12.2316 15.6
    endloop
  endfacet
  facet normal 0 0 1
    outer loop
      vertex 28 15.6 15.6
      vertex 15.2472 10.6925 15.6
      vertex 28 0 15.6
    endloop
  endfacet
  facet normal 0 0 1
    outer loop
      vertex 15.2472 10.6925 15.6
      vertex 16.0286 9.33909 15.6
      vertex 28 0 15.6
    endloop
  endfacet
  facet normal 0 0 1
    outer loop
      vertex 16.0286 9.33909 15.6
      vertex 16.3 7.8 15.6
      vertex 28 0 15.6
    endloop
  endfacet
  facet normal 0 -0 1
    outer loop
      vertex 16.3 7.8 15.6
      vertex 16.0286 6.26091 15.6
      vertex 28 0 15.6
    endloop
  endfacet
  facet normal 0 -0 1
    outer loop
      vertex 15.2472 4.90746 15.6
      vertex 14.05 3.90289 15.6
      vertex 28 0 15.6
    endloop
  endfacet
  facet normal 0 -0 1
    outer loop
      vertex 11.0186 3.36836 15.6
      vertex 0 0 15.6
      vertex 12.5814 3.36836 15.6
    endloop
  endfacet
  facet normal 0 -0 1
    outer loop
      vertex 0 6.9 15.6
      vertex 0 0 15.6
      vertex 11.0186 3.36836 15.6
    endloop
  endfacet
  facet normal 0 0 1
    outer loop
      vertex 0 6.9 15.6
      vertex 11.0186 3.36836 15.6
      vertex 9.55 3.90289 15.6
    endloop
  endfacet
  facet normal 0 0 1
    outer loop
      vertex 8.3528 4.90746 15.6
      vertex 7.57138 6.26091 15.6
      vertex 0 6.9 15.6
    endloop
  endfacet
  facet normal 0 -0 1
    outer loop
      vertex 7.45869 6.9 15.6
      vertex 0 6.9 15.6
      vertex 7.57138 6.26091 15.6
    endloop
  endfacet
  facet normal 0 -0 1
    outer loop
      vertex 16.0286 6.26091 15.6
      vertex 15.2472 4.90746 15.6
      vertex 28 0 15.6
    endloop
  endfacet
  facet normal 0 0 1
    outer loop
      vertex 0 8.9 15.6
      vertex 7.49396 8.9 15.6
      vertex 7.57138 9.33909 15.6
    endloop
  endfacet
  facet normal 1 0 -0
    outer loop
      vertex 28 0 15.6
      vertex 28 0 0
      vertex 28 15.6 0
    endloop
  endfacet
  facet normal 1 0 0
    outer loop
      vertex 28 15.6 15.6
      vertex 28 0 15.6
      vertex 28 15.6 0
    endloop
  endfacet
  facet normal 0.866025 0 0.5
    outer loop
      vertex 2.5 0 4.90192
      vertex 2.5 3 4.90192
      vertex 1 3 7.5
    endloop
  endfacet
  facet normal 0.866025 0 0.5
    outer loop
      vertex 1 0 7.5
      vertex 2.5 0 4.90192
      vertex 1 3 7.5
    endloop
  endfacet
  facet normal 0 0 1
    outer loop
      vertex 5.5 0 4.90192
      vertex 5.5 3 4.90192
      vertex 2.5 3 4.90192
    endloop
  endfacet
  facet normal 0 0 1
    outer loop
      vertex 2.5 0 4.90192
      vertex 5.5 0 4.90192
      vertex 2.5 3 4.90192
    endloop
  endfacet
  facet normal -0.866025 0 0.5
    outer loop
      vertex 7 3 7.5
      vertex 5.5 3 4.90192
      vertex 7 0 7.5
    endloop
  endfacet
  facet normal -0.866025 0 0.5
    outer loop
      vertex 7 0 7.5
      vertex 5.5 3 4.90192
      vertex 5.5 0 4.90192
    endloop
  endfacet
  facet normal -0.866025 0 -0.5
    outer loop
      vertex 7 3 7.5
      vertex 7 0 7.5
      vertex 5.5 3 10.0981
    endloop
  endfacet
  facet normal -0.866025 0 -0.5
    outer loop
      vertex 5.5 3 10.0981
      vertex 7 0 7.5
      vertex 5.5 0 10.0981
    endloop
  endfacet
  facet normal 0 0 -1
    outer loop
      vertex 5.5 3 10.0981
      vertex 5.5 0 10.0981
      vertex 2.5 3 10.0981
    endloop
  endfacet
  facet normal 0 0 -1
    outer loop
      vertex 2.5 3 10.0981
      vertex 5.5 0 10.0981
      vertex 2.5 0 10.0981
    endloop
  endfacet
  facet normal 0.866025 0 -0.5
    outer loop
      vertex 1 3 7.5
      vertex 2.5 3 10.0981
      vertex 2.5 0 10.0981
    endloop
  endfacet
  facet normal 0.866025 0 -0.5
    outer loop
      vertex 1 0 7.5
      vertex 1 3 7.5
      vertex 2.5 0 10.0981
    endloop
  endfacet
  facet normal 0.951056 7.0375e-17 0.309017
    outer loop
      vertex 17.3594 0 4.85497
      vertex 17.3594 15.6 4.85497
      vertex 16.5 15.6 7.5
    endloop
  endfacet
  facet normal 0.951056 7.0375e-17 0.309017
    outer loop
      vertex 16.5 0 7.5
      vertex 17.3594 0 4.85497
      vertex 16.5 15.6 7.5
    endloop
  endfacet
  facet normal 0.587785 1.84244e-16 0.809017
    outer loop
      vertex 19.6094 0 3.22025
      vertex 19.6094 15.6 3.22025
      vertex 17.3594 15.6 4.85497
    endloop
  endfacet
  facet normal 0.587785 1.84244e-16 0.809017
    outer loop
      vertex 17.3594 0 4.85497
      vertex 19.6094 0 3.22025
      vertex 17.3594 15.6 4.85497
    endloop
  endfacet
  facet normal 0 2.27738e-16 1
    outer loop
      vertex 22.3906 0 3.22025
      vertex 22.3906 15.6 3.22025
      vertex 19.6094 15.6 3.22025
    endloop
  endfacet
  facet normal 0 2.27738e-16 1
    outer loop
      vertex 19.6094 0 3.22025
      vertex 22.3906 0 3.22025
      vertex 19.6094 15.6 3.22025
    endloop
  endfacet
  facet normal -0.587785 1.84244e-16 0.809017
    outer loop
      vertex 24.6406 0 4.85497
      vertex 24.6406 15.6 4.85497
      vertex 22.3906 15.6 3.22025
    endloop
  endfacet
  facet normal -0.587785 1.84244e-16 0.809017
    outer loop
      vertex 22.3906 0 3.22025
      vertex 24.6406 0 4.85497
      vertex 22.3906 15.6 3.22025
    endloop
  endfacet
  facet normal -0.951056 7.0375e-17 0.309017
    outer loop
      vertex 25.5 15.6 7.5
      vertex 24.6406 15.6 4.85497
      vertex 25.5 0 7.5
    endloop
  endfacet
  facet normal -0.951056 6.86163e-17 0.309017
    outer loop
      vertex 25.5 0 7.5
      vertex 24.6406 15.6 4.85497
      vertex 24.6406 0 4.85497
    endloop
  endfacet
  facet normal -0.951056 -7.0375e-17 -0.309017
    outer loop
      vertex 25.5 15.6 7.5
      vertex 25.5 0 7.5
      vertex 24.6406 15.6 10.145
    endloop
  endfacet
  facet normal -0.951056 -7.0375e-17 -0.309017
    outer loop
      vertex 24.6406 15.6 10.145
      vertex 25.5 0 7.5
      vertex 24.6406 0 10.145
    endloop
  endfacet
  facet normal -0.587785 -1.84244e-16 -0.809017
    outer loop
      vertex 24.6406 15.6 10.145
      vertex 24.6406 0 10.145
      vertex 22.3906 15.6 11.7798
    endloop
  endfacet
  facet normal -0.587785 -1.84244e-16 -0.809017
    outer loop
      vertex 22.3906 15.6 11.7798
      vertex 24.6406 0 10.145
      vertex 22.3906 0 11.7798
    endloop
  endfacet
  facet normal 0 -2.27738e-16 -1
    outer loop
      vertex 22.3906 15.6 11.7798
      vertex 22.3906 0 11.7798
      vertex 19.6094 15.6 11.7798
    endloop
  endfacet
  facet normal 0 -2.27738e-16 -1
    outer loop
      vertex 19.6094 15.6 11.7798
      vertex 22.3906 0 11.7798
      vertex 19.6094 0 11.7798
    endloop
  endfacet
  facet normal 0.587785 -1.84244e-16 -0.809017
    outer loop
      vertex 19.6094 15.6 11.7798
      vertex 19.6094 0 11.7798
      vertex 17.3594 15.6 10.145
    endloop
  endfacet
  facet normal 0.587785 -1.84244e-16 -0.809017
    outer loop
      vertex 17.3594 15.6 10.145
      vertex 19.6094 0 11.7798
      vertex 17.3594 0 10.145
    endloop
  endfacet
  facet normal 0.951056 -6.86163e-17 -0.309017
    outer loop
      vertex 16.5 15.6 7.5
      vertex 17.3594 15.6 10.145
      vertex 17.3594 0 10.145
    endloop
  endfacet
  facet normal 0.951056 -7.0375e-17 -0.309017
    outer loop
      vertex 16.5 0 7.5
      vertex 16.5 15.6 7.5
      vertex 17.3594 0 10.145
    endloop
  endfacet
  facet normal 0 1 -0
    outer loop
      vertex 22.3906 15.6 3.22025
      vertex 28 15.6 0
      vertex 19.6094 15.6 3.22025
    endloop
  endfacet
  facet normal 0 1 0
    outer loop
      vertex 22.3906 15.6 11.7798
      vertex 0 15.6 15.6
      vertex 28 15.6 15.6
    endloop
  endfacet
  facet normal 0 1 0
    outer loop
      vertex 0 15.6 0
      vertex 0 15.6 15.6
      vertex 2.2 15.6 7.5
    endloop
  endfacet
  facet normal 0 1 0
    outer loop
      vertex 0 15.6 0
      vertex 2.2 15.6 7.5
      vertex 2.54377 15.6 6.44199
    endloop
  endfacet
  facet normal 0 1 0
    outer loop
      vertex 0 15.6 0
      vertex 2.54377 15.6 6.44199
      vertex 3.44377 15.6 5.7881
    endloop
  endfacet
  facet normal 0 1 0
    outer loop
      vertex 0 15.6 0
      vertex 3.44377 15.6 5.7881
      vertex 28 15.6 0
    endloop
  endfacet
  facet normal 0 1 0
    outer loop
      vertex 3.44377 15.6 5.7881
      vertex 4.55623 15.6 5.7881
      vertex 28 15.6 0
    endloop
  endfacet
  facet normal 0 1 -0
    outer loop
      vertex 5.8 15.6 7.5
      vertex 28 15.6 0
      vertex 5.45623 15.6 6.44199
    endloop
  endfacet
  facet normal 0 1 0
    outer loop
      vertex 17.3594 15.6 4.85497
      vertex 0 15.6 15.6
      vertex 16.5 15.6 7.5
    endloop
  endfacet
  facet normal 0 1 0
    outer loop
      vertex 4.55623 15.6 9.2119
      vertex 0 15.6 15.6
      vertex 5.45623 15.6 8.55801
    endloop
  endfacet
  facet normal 0 1 -0
    outer loop
      vertex 24.6406 15.6 4.85497
      vertex 28 15.6 0
      vertex 22.3906 15.6 3.22025
    endloop
  endfacet
  facet normal 0 1 0
    outer loop
      vertex 5.8 15.6 7.5
      vertex 5.45623 15.6 8.55801
      vertex 28 15.6 0
    endloop
  endfacet
  facet normal 0 1 0
    outer loop
      vertex 3.44377 15.6 9.2119
      vertex 0 15.6 15.6
      vertex 4.55623 15.6 9.2119
    endloop
  endfacet
  facet normal 0 1 0
    outer loop
      vertex 2.54377 15.6 8.55801
      vertex 0 15.6 15.6
      vertex 3.44377 15.6 9.2119
    endloop
  endfacet
  facet normal 0 1 0
    outer loop
      vertex 2.2 15.6 7.5
      vertex 0 15.6 15.6
      vertex 2.54377 15.6 8.55801
    endloop
  endfacet
  facet normal 0 1 0
    outer loop
      vertex 5.45623 15.6 8.55801
      vertex 0 15.6 15.6
      vertex 17.3594 15.6 4.85497
    endloop
  endfacet
  facet normal 0 1 0
    outer loop
      vertex 5.45623 15.6 8.55801
      vertex 17.3594 15.6 4.85497
      vertex 19.6094 15.6 3.22025
    endloop
  endfacet
  facet normal 0 1 0
    outer loop
      vertex 5.45623 15.6 8.55801
      vertex 19.6094 15.6 3.22025
      vertex 28 15.6 0
    endloop
  endfacet
  facet normal 0 1 0
    outer loop
      vertex 24.6406 15.6 10.145
      vertex 28 15.6 15.6
      vertex 25.5 15.6 7.5
    endloop
  endfacet
  facet normal 0 1 0
    outer loop
      vertex 28 15.6 0
      vertex 24.6406 15.6 4.85497
      vertex 25.5 15.6 7.5
    endloop
  endfacet
  facet normal 0 1 0
    outer loop
      vertex 28 15.6 0
      vertex 25.5 15.6 7.5
      vertex 28 15.6 15.6
    endloop
  endfacet
  facet normal 0 1 0
    outer loop
      vertex 22.3906 15.6 11.7798
      vertex 28 15.6 15.6
      vertex 24.6406 15.6 10.145
    endloop
  endfacet
  facet normal 0 1 0
    outer loop
      vertex 19.6094 15.6 11.7798
      vertex 0 15.6 15.6
      vertex 22.3906 15.6 11.7798
    endloop
  endfacet
  facet normal 0 1 0
    outer loop
      vertex 17.3594 15.6 10.145
      vertex 0 15.6 15.6
      vertex 19.6094 15.6 11.7798
    endloop
  endfacet
  facet normal 0 1 0
    outer loop
      vertex 16.5 15.6 7.5
      vertex 0 15.6 15.6
      vertex 17.3594 15.6 10.145
    endloop
  endfacet
  facet normal 0 1 -0
    outer loop
      vertex 5.45623 15.6 6.44199
      vertex 28 15.6 0
      vertex 4.55623 15.6 5.7881
    endloop
  endfacet
  facet normal -1 -0 -0
    outer loop
      vertex 0 8.9 0
      vertex 0 8.9 15.6
      vertex 0 15.6 0
    endloop
  endfacet
  facet normal -1 0 0
    outer loop
      vertex 0 15.6 0
      vertex 0 8.9 15.6
      vertex 0 15.6 15.6
    endloop
  endfacet
  facet normal 0 -1 -0
    outer loop
      vertex 3.44377 8.9 9.2119
      vertex 7.49396 8.9 15.6
      vertex 0 8.9 15.6
    endloop
  endfacet
  facet normal 0 -1 0
    outer loop
      vertex 5.8 8.9 7.5
      vertex 5.45623 8.9 6.44199
      vertex 7.49396 8.9 0
    endloop
  endfacet
  facet normal 0 -1 -0
    outer loop
      vertex 0 8.9 0
      vertex 2.2 8.9 7.5
      vertex 0 8.9 15.6
    endloop
  endfacet
  facet normal 0 -1 -0
    outer loop
      vertex 2.2 8.9 7.5
      vertex 2.54377 8.9 8.55801
      vertex 0 8.9 15.6
    endloop
  endfacet
  facet normal 0 -1 -0
    outer loop
      vertex 4.55623 8.9 9.2119
      vertex 7.49396 8.9 15.6
      vertex 3.44377 8.9 9.2119
    endloop
  endfacet
  facet normal 0 -1 0
    outer loop
      vertex 4.55623 8.9 5.7881
      vertex 3.44377 8.9 5.7881
      vertex 7.49396 8.9 0
    endloop
  endfacet
  facet normal 0 -1 -0
    outer loop
      vertex 5.45623 8.9 8.55801
      vertex 7.49396 8.9 15.6
      vertex 4.55623 8.9 9.2119
    endloop
  endfacet
  facet normal 0 -1 -0
    outer loop
      vertex 5.8 8.9 7.5
      vertex 7.49396 8.9 15.6
      vertex 5.45623 8.9 8.55801
    endloop
  endfacet
  facet normal 0 -1 0
    outer loop
      vertex 7.49396 8.9 0
      vertex 7.49396 8.9 15.6
      vertex 5.8 8.9 7.5
    endloop
  endfacet
  facet normal 0 -1 0
    outer loop
      vertex 5.45623 8.9 6.44199
      vertex 4.55623 8.9 5.7881
      vertex 7.49396 8.9 0
    endloop
  endfacet
  facet normal 0 -1 0
    outer loop
      vertex 3.44377 8.9 5.7881
      vertex 2.54377 8.9 6.44199
      vertex 7.49396 8.9 0
    endloop
  endfacet
  facet normal 0 -1 0
    outer loop
      vertex 0 8.9 0
      vertex 2.54377 8.9 6.44199
      vertex 2.2 8.9 7.5
    endloop
  endfacet
  facet normal -0 -1 0
    outer loop
      vertex 0 8.9 0
      vertex 7.49396 8.9 0
      vertex 2.54377 8.9 6.44199
    endloop
  endfacet
  facet normal 0 -1 -0
    outer loop
      vertex 2.54377 8.9 8.55801
      vertex 3.44377 8.9 9.2119
      vertex 0 8.9 15.6
    endloop
  endfacet
  facet normal 0.984808 -0.173648 0
    outer loop
      vertex 7.57138 9.33909 0
      vertex 7.57138 9.33909 15.6
      vertex 7.49396 8.9 15.6
    endloop
  endfacet
  facet normal 0.984808 -0.173648 0
    outer loop
      vertex 7.49396 8.9 0
      vertex 7.57138 9.33909 0
      vertex 7.49396 8.9 15.6
    endloop
  endfacet
  facet normal 0.866025 -0.5 0
    outer loop
      vertex 8.3528 10.6925 0
      vertex 8.3528 10.6925 15.6
      vertex 7.57138 9.33909 15.6
    endloop
  endfacet
  facet normal 0.866025 -0.5 0
    outer loop
      vertex 7.57138 9.33909 0
      vertex 8.3528 10.6925 0
      vertex 7.57138 9.33909 15.6
    endloop
  endfacet
  facet normal 0.642788 -0.766044 0
    outer loop
      vertex 9.55 11.6971 0
      vertex 9.55 11.6971 15.6
      vertex 8.3528 10.6925 15.6
    endloop
  endfacet
  facet normal 0.642788 -0.766044 0
    outer loop
      vertex 8.3528 10.6925 0
      vertex 9.55 11.6971 0
      vertex 8.3528 10.6925 15.6
    endloop
  endfacet
  facet normal 0.34202 -0.939693 0
    outer loop
      vertex 11.0186 12.2316 0
      vertex 11.0186 12.2316 15.6
      vertex 9.55 11.6971 15.6
    endloop
  endfacet
  facet normal 0.34202 -0.939693 0
    outer loop
      vertex 9.55 11.6971 0
      vertex 11.0186 12.2316 0
      vertex 9.55 11.6971 15.6
    endloop
  endfacet
  facet normal 0 -1 0
    outer loop
      vertex 12.5814 12.2316 0
      vertex 12.5814 12.2316 15.6
      vertex 11.0186 12.2316 15.6
    endloop
  endfacet
  facet normal -0 -1 -0
    outer loop
      vertex 11.0186 12.2316 0
      vertex 12.5814 12.2316 0
      vertex 11.0186 12.2316 15.6
    endloop
  endfacet
  facet normal -0.34202 -0.939693 -0
    outer loop
      vertex 14.05 11.6971 0
      vertex 14.05 11.6971 15.6
      vertex 12.5814 12.2316 15.6
    endloop
  endfacet
  facet normal -0.34202 -0.939693 -0
    outer loop
      vertex 12.5814 12.2316 0
      vertex 14.05 11.6971 0
      vertex 12.5814 12.2316 15.6
    endloop
  endfacet
  facet normal -0.642788 -0.766044 -0
    outer loop
      vertex 15.2472 10.6925 0
      vertex 15.2472 10.6925 15.6
      vertex 14.05 11.6971 15.6
    endloop
  endfacet
  facet normal -0.642788 -0.766044 -0
    outer loop
      vertex 14.05 11.6971 0
      vertex 15.2472 10.6925 0
      vertex 14.05 11.6971 15.6
    endloop
  endfacet
  facet normal -0.866025 -0.5 0
    outer loop
      vertex 16.0286 9.33909 15.6
      vertex 15.2472 10.6925 15.6
      vertex 16.0286 9.33909 0
    endloop
  endfacet
  facet normal -0.866025 -0.5 0
    outer loop
      vertex 16.0286 9.33909 0
      vertex 15.2472 10.6925 15.6
      vertex 15.2472 10.6925 0
    endloop
  endfacet
  facet normal -0.984808 -0.173648 0
    outer loop
      vertex 16.3 7.8 15.6
      vertex 16.0286 9.33909 15.6
      vertex 16.3 7.8 0
    endloop
  endfacet
  facet normal -0.984808 -0.173648 0
    outer loop
      vertex 16.3 7.8 0
      vertex 16.0286 9.33909 15.6
      vertex 16.0286 9.33909 0
    endloop
  endfacet
  facet normal -0.984808 0.173648 0
    outer loop
      vertex 16.3 7.8 15.6
      vertex 16.3 7.8 0
      vertex 16.0286 6.26091 15.6
    endloop
  endfacet
  facet normal -0.984808 0.173648 0
    outer loop
      vertex 16.0286 6.26091 15.6
      vertex 16.3 7.8 0
      vertex 16.0286 6.26091 0
    endloop
  endfacet
  facet normal -0.866025 0.5 0
    outer loop
      vertex 16.0286 6.26091 15.6
      vertex 16.0286 6.26091 0
      vertex 15.2472 4.90746 15.6
    endloop
  endfacet
  facet normal -0.866025 0.5 0
    outer loop
      vertex 15.2472 4.90746 15.6
      vertex 16.0286 6.26091 0
      vertex 15.2472 4.90746 0
    endloop
  endfacet
  facet normal -0.642788 0.766044 0
    outer loop
      vertex 15.2472 4.90746 15.6
      vertex 15.2472 4.90746 0
      vertex 14.05 3.90289 15.6
    endloop
  endfacet
  facet normal -0.642788 0.766044 0
    outer loop
      vertex 14.05 3.90289 15.6
      vertex 15.2472 4.90746 0
      vertex 14.05 3.90289 0
    endloop
  endfacet
  facet normal -0.34202 0.939693 0
    outer loop
      vertex 14.05 3.90289 15.6
      vertex 14.05 3.90289 0
      vertex 12.5814 3.36836 15.6
    endloop
  endfacet
  facet normal -0.34202 0.939693 0
    outer loop
      vertex 12.5814 3.36836 15.6
      vertex 14.05 3.90289 0
      vertex 12.5814 3.36836 0
    endloop
  endfacet
  facet normal 0 1 0
    outer loop
      vertex 12.5814 3.36836 15.6
      vertex 12.5814 3.36836 0
      vertex 11.0186 3.36836 15.6
    endloop
  endfacet
  facet normal 0 1 -0
    outer loop
      vertex 11.0186 3.36836 15.6
      vertex 12.5814 3.36836 0
      vertex 11.0186 3.36836 0
    endloop
  endfacet
  facet normal 0.34202 0.939693 -0
    outer loop
      vertex 11.0186 3.36836 15.6
      vertex 11.0186 3.36836 0
      vertex 9.55 3.90289 15.6
    endloop
  endfacet
  facet normal 0.34202 0.939693 -0
    outer loop
      vertex 9.55 3.90289 15.6
      vertex 11.0186 3.36836 0
      vertex 9.55 3.90289 0
    endloop
  endfacet
  facet normal 0.642788 0.766044 -0
    outer loop
      vertex 9.55 3.90289 15.6
      vertex 9.55 3.90289 0
      vertex 8.3528 4.90746 15.6
    endloop
  endfacet
  facet normal 0.642788 0.766044 -0
    outer loop
      vertex 8.3528 4.90746 15.6
      vertex 9.55 3.90289 0
      vertex 8.3528 4.90746 0
    endloop
  endfacet
  facet normal 0.866025 0.5 0
    outer loop
      vertex 7.57138 6.26091 15.6
      vertex 8.3528 4.90746 15.6
      vertex 8.3528 4.90746 0
    endloop
  endfacet
  facet normal 0.866025 0.5 0
    outer loop
      vertex 7.57138 6.26091 0
      vertex 7.57138 6.26091 15.6
      vertex 8.3528 4.90746 0
    endloop
  endfacet
  facet normal 0.984808 0.173648 0
    outer loop
      vertex 7.45869 6.9 15.6
      vertex 7.57138 6.26091 15.6
      vertex 7.57138 6.26091 0
    endloop
  endfacet
  facet normal 0.984808 0.173648 0
    outer loop
      vertex 7.45869 6.9 0
      vertex 7.45869 6.9 15.6
      vertex 7.57138 6.26091 0
    endloop
  endfacet
  facet normal 0.587786 0 0.809017
    outer loop
      vertex 3.44377 3 5.7881
      vertex 3.44377 6.9 5.7881
      vertex 2.54377 6.9 6.44199
    endloop
  endfacet
  facet normal 0.587786 1.84244e-16 0.809017
    outer loop
      vertex 2.54377 3 6.44199
      vertex 3.44377 3 5.7881
      vertex 2.54377 6.9 6.44199
    endloop
  endfacet
  facet normal 0.951057 7.03749e-17 0.309017
    outer loop
      vertex 2.54377 3 6.44199
      vertex 2.54377 6.9 6.44199
      vertex 2.2 6.9 7.5
    endloop
  endfacet
  facet normal 0.951057 7.03749e-17 0.309017
    outer loop
      vertex 2.2 3 7.5
      vertex 2.54377 3 6.44199
      vertex 2.2 6.9 7.5
    endloop
  endfacet
  facet normal 0.951057 -1.37232e-16 -0.309017
    outer loop
      vertex 2.2 6.9 7.5
      vertex 2.54377 6.9 8.55801
      vertex 2.54377 3 8.55801
    endloop
  endfacet
  facet normal 0.951057 -7.03749e-17 -0.309017
    outer loop
      vertex 2.2 3 7.5
      vertex 2.2 6.9 7.5
      vertex 2.54377 3 8.55801
    endloop
  endfacet
  facet normal 0.587786 0 -0.809017
    outer loop
      vertex 3.44377 6.9 9.2119
      vertex 3.44377 3 9.2119
      vertex 2.54377 6.9 8.55801
    endloop
  endfacet
  facet normal 0.587786 -3.68488e-16 -0.809017
    outer loop
      vertex 2.54377 6.9 8.55801
      vertex 3.44377 3 9.2119
      vertex 2.54377 3 8.55801
    endloop
  endfacet
  facet normal 0 0 -1
    outer loop
      vertex 4.55623 6.9 9.2119
      vertex 4.55623 3 9.2119
      vertex 3.44377 6.9 9.2119
    endloop
  endfacet
  facet normal 0 0 -1
    outer loop
      vertex 3.44377 6.9 9.2119
      vertex 4.55623 3 9.2119
      vertex 3.44377 3 9.2119
    endloop
  endfacet
  facet normal -0.587786 -3.68488e-16 -0.809017
    outer loop
      vertex 5.45623 6.9 8.55801
      vertex 5.45623 3 8.55801
      vertex 4.55623 6.9 9.2119
    endloop
  endfacet
  facet normal -0.587786 0 -0.809017
    outer loop
      vertex 4.55623 6.9 9.2119
      vertex 5.45623 3 8.55801
      vertex 4.55623 3 9.2119
    endloop
  endfacet
  facet normal -0.951057 -7.03749e-17 -0.309017
    outer loop
      vertex 5.8 6.9 7.5
      vertex 5.8 3 7.5
      vertex 5.45623 6.9 8.55801
    endloop
  endfacet
  facet normal -0.951057 -1.4075e-16 -0.309017
    outer loop
      vertex 5.45623 6.9 8.55801
      vertex 5.8 3 7.5
      vertex 5.45623 3 8.55801
    endloop
  endfacet
  facet normal -0.951057 7.03749e-17 0.309017
    outer loop
      vertex 5.8 6.9 7.5
      vertex 5.45623 6.9 6.44199
      vertex 5.8 3 7.5
    endloop
  endfacet
  facet normal -0.951057 6.86187e-17 0.309017
    outer loop
      vertex 5.8 3 7.5
      vertex 5.45623 6.9 6.44199
      vertex 5.45623 3 6.44199
    endloop
  endfacet
  facet normal -0.587786 1.84244e-16 0.809017
    outer loop
      vertex 5.45623 3 6.44199
      vertex 5.45623 6.9 6.44199
      vertex 4.55623 6.9 5.7881
    endloop
  endfacet
  facet normal -0.587786 0 0.809017
    outer loop
      vertex 4.55623 3 5.7881
      vertex 5.45623 3 6.44199
      vertex 4.55623 6.9 5.7881
    endloop
  endfacet
  facet normal 0 0 1
    outer loop
      vertex 4.55623 3 5.7881
      vertex 4.55623 6.9 5.7881
      vertex 3.44377 6.9 5.7881
    endloop
  endfacet
  facet normal 0 0 1
    outer loop
      vertex 3.44377 3 5.7881
      vertex 4.55623 3 5.7881
      vertex 3.44377 6.9 5.7881
    endloop
  endfacet
  facet normal 8.8321e-17 -1 2.90868e-16
    outer loop
      vertex 5.45623 3 6.44199
      vertex 5.5 3 4.90192
      vertex 7 3 7.5
    endloop
  endfacet
  facet normal 9.32008e-31 -1 4.19739e-16
    outer loop
      vertex 5.8 3 7.5
      vertex 5.45623 3 6.44199
      vertex 7 3 7.5
    endloop
  endfacet
  facet normal -3.79541e-31 -1 1.7093e-16
    outer loop
      vertex 1 3 7.5
      vertex 2.2 3 7.5
      vertex 2.5 3 10.0981
    endloop
  endfacet
  facet normal -7.59082e-31 -1 3.4186e-16
    outer loop
      vertex 1 3 7.5
      vertex 2.5 3 4.90192
      vertex 2.2 3 7.5
    endloop
  endfacet
  facet normal 2.05266e-16 -1 2.82524e-16
    outer loop
      vertex 4.55623 3 9.2119
      vertex 5.45623 3 8.55801
      vertex 5.5 3 10.0981
    endloop
  endfacet
  facet normal 0 -1 5.01131e-16
    outer loop
      vertex 3.44377 3 9.2119
      vertex 4.55623 3 9.2119
      vertex 5.5 3 10.0981
    endloop
  endfacet
  facet normal 0 -1 5.01131e-16
    outer loop
      vertex 2.5 3 10.0981
      vertex 3.44377 3 9.2119
      vertex 5.5 3 10.0981
    endloop
  endfacet
  facet normal -2.05266e-16 -1 2.82524e-16
    outer loop
      vertex 2.5 3 10.0981
      vertex 2.54377 3 8.55801
      vertex 3.44377 3 9.2119
    endloop
  endfacet
  facet normal 1.93849e-16 -1 2.82849e-16
    outer loop
      vertex 5.5 3 10.0981
      vertex 5.45623 3 8.55801
      vertex 7 3 7.5
    endloop
  endfacet
  facet normal 0 -1 0
    outer loop
      vertex 5.45623 3 8.55801
      vertex 5.8 3 7.5
      vertex 7 3 7.5
    endloop
  endfacet
  facet normal -2.05266e-16 -1 2.82524e-16
    outer loop
      vertex 4.55623 3 5.7881
      vertex 5.5 3 4.90192
      vertex 5.45623 3 6.44199
    endloop
  endfacet
  facet normal 2.05266e-16 -1 2.82524e-16
    outer loop
      vertex 3.44377 3 5.7881
      vertex 2.54377 3 6.44199
      vertex 2.5 3 4.90192
    endloop
  endfacet
  facet normal 0 -1 5.01131e-16
    outer loop
      vertex 2.5 3 4.90192
      vertex 5.5 3 4.90192
      vertex 4.55623 3 5.7881
    endloop
  endfacet
  facet normal 0 -1 5.01131e-16
    outer loop
      vertex 4.55623 3 5.7881
      vertex 3.44377 3 5.7881
      vertex 2.5 3 4.90192
    endloop
  endfacet
  facet normal -8.16092e-16 -1 2.65164e-16
    outer loop
      vertex 2.2 3 7.5
      vertex 2.54377 3 8.55801
      vertex 2.5 3 10.0981
    endloop
  endfacet
  facet normal -3.71827e-16 -1 2.98925e-16
    outer loop
      vertex 2.54377 3 6.44199
      vertex 2.2 3 7.5
      vertex 2.5 3 4.90192
    endloop
  endfacet
  facet normal 0.951057 -7.71946e-17 -0.309017
    outer loop
      vertex 2.2 15.6 7.5
      vertex 2.54377 15.6 8.55801
      vertex 2.54377 8.9 8.55801
    endloop
  endfacet
  facet normal 0.951057 -8.1929e-17 -0.309017
    outer loop
      vertex 2.2 8.9 7.5
      vertex 2.2 15.6 7.5
      vertex 2.54377 8.9 8.55801
    endloop
  endfacet
  facet normal 0.951057 8.1929e-17 0.309017
    outer loop
      vertex 2.54377 8.9 6.44199
      vertex 2.54377 15.6 6.44199
      vertex 2.2 15.6 7.5
    endloop
  endfacet
  facet normal 0.951057 8.1929e-17 0.309017
    outer loop
      vertex 2.2 8.9 7.5
      vertex 2.54377 8.9 6.44199
      vertex 2.2 15.6 7.5
    endloop
  endfacet
  facet normal 0.587786 -2.14493e-16 -0.809017
    outer loop
      vertex 3.44377 15.6 9.2119
      vertex 3.44377 8.9 9.2119
      vertex 2.54377 15.6 8.55801
    endloop
  endfacet
  facet normal 0.587786 -2.14493e-16 -0.809017
    outer loop
      vertex 2.54377 15.6 8.55801
      vertex 3.44377 8.9 9.2119
      vertex 2.54377 8.9 8.55801
    endloop
  endfacet
  facet normal 0 -2.65128e-16 -1
    outer loop
      vertex 4.55623 15.6 9.2119
      vertex 4.55623 8.9 9.2119
      vertex 3.44377 15.6 9.2119
    endloop
  endfacet
  facet normal 0 -2.65128e-16 -1
    outer loop
      vertex 3.44377 15.6 9.2119
      vertex 4.55623 8.9 9.2119
      vertex 3.44377 8.9 9.2119
    endloop
  endfacet
  facet normal -0.587786 -2.14493e-16 -0.809017
    outer loop
      vertex 5.45623 15.6 8.55801
      vertex 5.45623 8.9 8.55801
      vertex 4.55623 15.6 9.2119
    endloop
  endfacet
  facet normal -0.587786 -2.14493e-16 -0.809017
    outer loop
      vertex 4.55623 15.6 9.2119
      vertex 5.45623 8.9 8.55801
      vertex 4.55623 8.9 9.2119
    endloop
  endfacet
  facet normal -0.951057 -8.1929e-17 -0.309017
    outer loop
      vertex 5.8 15.6 7.5
      vertex 5.8 8.9 7.5
      vertex 5.45623 15.6 8.55801
    endloop
  endfacet
  facet normal -0.951057 -8.1929e-17 -0.309017
    outer loop
      vertex 5.45623 15.6 8.55801
      vertex 5.8 8.9 7.5
      vertex 5.45623 8.9 8.55801
    endloop
  endfacet
  facet normal -0.951057 8.1929e-17 0.309017
    outer loop
      vertex 5.8 15.6 7.5
      vertex 5.45623 15.6 6.44199
      vertex 5.8 8.9 7.5
    endloop
  endfacet
  facet normal -0.951057 8.57701e-17 0.309017
    outer loop
      vertex 5.8 8.9 7.5
      vertex 5.45623 15.6 6.44199
      vertex 5.45623 8.9 6.44199
    endloop
  endfacet
  facet normal -0.587786 2.14493e-16 0.809017
    outer loop
      vertex 5.45623 8.9 6.44199
      vertex 5.45623 15.6 6.44199
      vertex 4.55623 15.6 5.7881
    endloop
  endfacet
  facet normal -0.587786 2.14493e-16 0.809017
    outer loop
      vertex 4.55623 8.9 5.7881
      vertex 5.45623 8.9 6.44199
      vertex 4.55623 15.6 5.7881
    endloop
  endfacet
  facet normal 0 2.65128e-16 1
    outer loop
      vertex 4.55623 8.9 5.7881
      vertex 4.55623 15.6 5.7881
      vertex 3.44377 15.6 5.7881
    endloop
  endfacet
  facet normal 0 2.65128e-16 1
    outer loop
      vertex 3.44377 8.9 5.7881
      vertex 4.55623 8.9 5.7881
      vertex 3.44377 15.6 5.7881
    endloop
  endfacet
  facet normal 0.587786 2.14493e-16 0.809017
    outer loop
      vertex 3.44377 8.9 5.7881
      vertex 3.44377 15.6 5.7881
      vertex 2.54377 15.6 6.44199
    endloop
  endfacet
  facet normal 0.587786 2.14493e-16 0.809017
    outer loop
      vertex 2.54377 8.9 6.44199
      vertex 3.44377 8.9 5.7881
      vertex 2.54377 15.6 6.44199
    endloop
  endfacet
endsolid OpenSCAD_Model
